<svg width="1200" height="900" viewBox="0 0 1200 900" fill="none" xmlns="http://www.w3.org/2000/svg">
  <rect width="1200" height="900" rx="48" fill="url(#bg)"/>
  <path d="M108 730H320" stroke="#17385B" stroke-width="18" stroke-linecap="round"/>
  <path d="M176 730V204H208V730" stroke="#E7A93D" stroke-width="18" stroke-linecap="round"/>
  <path d="M108 250L600 250" stroke="#E7A93D" stroke-width="18" stroke-linecap="round"/>
  <path d="M176 250L128 284" stroke="#E7A93D" stroke-width="12" stroke-linecap="round"/>
  <path d="M206 250L252 214" stroke="#E7A93D" stroke-width="12" stroke-linecap="round"/>
  <path d="M560 250L560 388" stroke="#17385B" stroke-width="10" stroke-linecap="round"/>
  <path d="M528 388H592" stroke="#17385B" stroke-width="10" stroke-linecap="round"/>
  <path d="M548 388L548 476" stroke="#E8763B" stroke-width="10" stroke-linecap="round"/>
  <path d="M572 388L572 476" stroke="#E8763B" stroke-width="10" stroke-linecap="round"/>
  <rect x="506" y="478" width="108" height="72" rx="16" fill="#F5B53E" stroke="#17385B" stroke-width="8"/>
  <path d="M520 552L476 646" stroke="#17385B" stroke-width="8" stroke-linecap="round"/>
  <path d="M600 552L644 646" stroke="#17385B" stroke-width="8" stroke-linecap="round"/>
  <path d="M560 552V646" stroke="#17385B" stroke-width="8" stroke-linecap="round"/>
  <rect x="434" y="646" width="248" height="92" rx="20" fill="#77828E" stroke="#17385B" stroke-width="8"/>
  <line x1="496" y1="646" x2="496" y2="738" stroke="#5B6570" stroke-width="6"/>
  <line x1="558" y1="646" x2="558" y2="738" stroke="#5B6570" stroke-width="6"/>
  <line x1="620" y1="646" x2="620" y2="738" stroke="#5B6570" stroke-width="6"/>
  <rect x="844" y="214" width="176" height="290" rx="18" fill="#F7E3A2" stroke="#17385B" stroke-width="8"/>
  <rect x="862" y="234" width="140" height="104" rx="10" fill="#D8EBF9" stroke="#17385B" stroke-width="6"/>
  <rect x="880" y="526" width="56" height="84" rx="8" fill="#17385B"/>
  <rect x="944" y="526" width="56" height="84" rx="8" fill="#17385B"/>
  <path d="M846 390H1018" stroke="#E7A93D" stroke-width="16" stroke-linecap="round"/>
  <path d="M848 458H1018" stroke="#E7A93D" stroke-width="16" stroke-linecap="round"/>
  <circle cx="842" cy="628" r="78" fill="#F3D8A6" stroke="#17385B" stroke-width="8"/>
  <path d="M790 610C806 568 846 544 886 548C916 552 948 572 970 614" stroke="#17385B" stroke-width="8" stroke-linecap="round"/>
  <path d="M786 640C806 684 852 704 894 696" stroke="#17385B" stroke-width="8" stroke-linecap="round"/>
  <path d="M872 550C870 520 888 488 924 476C964 462 1008 482 1026 522" stroke="#17385B" stroke-width="8" stroke-linecap="round"/>
  <rect x="944" y="508" width="114" height="160" rx="18" fill="#E8763B" stroke="#17385B" stroke-width="8"/>
  <path d="M966 522L980 640" stroke="#F7E3A2" stroke-width="8" stroke-linecap="round"/>
  <path d="M1038 522L1026 640" stroke="#F7E3A2" stroke-width="8" stroke-linecap="round"/>
  <rect x="970" y="648" width="28" height="96" rx="12" fill="#17385B"/>
  <rect x="1014" y="648" width="28" height="96" rx="12" fill="#17385B"/>
  <path d="M934 452C938 418 968 392 1004 392C1040 392 1070 418 1074 452H934Z" fill="#F4F8FB" stroke="#17385B" stroke-width="8"/>
  <text x="1004" y="438" text-anchor="middle" font-family="Manrope, Arial, sans-serif" font-size="32" font-weight="800" fill="#17385B">COMPETENT</text>
  <text x="1004" y="472" text-anchor="middle" font-family="Manrope, Arial, sans-serif" font-size="32" font-weight="800" fill="#17385B">PERSON</text>
  <rect x="956" y="584" width="112" height="82" rx="14" fill="#F0C185" stroke="#17385B" stroke-width="8" transform="rotate(10 956 584)"/>
  <line x1="980" y1="606" x2="1052" y2="618" stroke="#A8703A" stroke-width="6" stroke-linecap="round"/>
  <line x1="976" y1="632" x2="1048" y2="644" stroke="#A8703A" stroke-width="6" stroke-linecap="round"/>
  <path d="M410 294C512 216 694 194 816 268" stroke="#17385B" stroke-opacity="0.1" stroke-width="28" stroke-linecap="round"/>
  <path d="M352 372C436 318 556 300 648 326" stroke="#17385B" stroke-opacity="0.08" stroke-width="24" stroke-linecap="round"/>
  <rect x="100" y="92" width="1000" height="86" rx="24" fill="#F5F8FB" fill-opacity="0.86"/>
  <text x="600" y="146" text-anchor="middle" font-family="Sora, Arial, sans-serif" font-size="40" font-weight="700" fill="#17385B">Lifting Tools, Tackles, Crane, Hoist &amp; Lift</text>
  <text x="600" y="792" text-anchor="middle" font-family="Sora, Arial, sans-serif" font-size="42" font-weight="700" fill="#17385B">Third-Party Competent Person Support</text>
  <defs>
    <linearGradient id="bg" x1="90" y1="74" x2="1124" y2="862" gradientUnits="userSpaceOnUse">
      <stop stop-color="#FFFDF7"/>
      <stop offset="1" stop-color="#EEE6D9"/>
    </linearGradient>
  </defs>
</svg>
